<svg width="600" height="400" viewBox="0 0 600 400" fill="none" xmlns="http://www.w3.org/2000/svg">
  <rect width="600" height="400" rx="20" fill="#F5F9FC"/>
  
  <!-- Header Bar -->
  <rect x="20" y="20" width="560" height="50" rx="10" fill="#0A2540"/>
  <circle cx="45" cy="45" r="15" fill="#D4AF37"/>
  <rect x="70" y="35" width="80" height="20" rx="5" fill="#1E3F66"/>
  <rect x="430" y="35" width="60" height="20" rx="5" fill="#1E3F66"/>
  <rect x="500" y="35" width="60" height="20" rx="5" fill="#D4AF37"/>
  
  <!-- Left Sidebar -->
  <rect x="20" y="90" width="150" height="290" rx="10" fill="#0A2540"/>
  <rect x="35" y="110" width="120" height="30" rx="5" fill="#1E3F66"/>
  <rect x="35" y="150" width="120" height="30" rx="5" fill="#1E3F66"/>
  <rect x="35" y="190" width="120" height="30" rx="5" fill="#1E3F66"/>
  <rect x="35" y="230" width="120" height="30" rx="5" fill="#1E3F66"/>
  <rect x="35" y="270" width="120" height="30" rx="5" fill="#D4AF37"/>
  <rect x="35" y="310" width="120" height="30" rx="5" fill="#1E3F66"/>
  
  <!-- Main Content Area - Cards -->
  <rect x="190" y="90" width="180" height="130" rx="10" fill="white" stroke="#E0E0E0" stroke-width="2"/>
  <rect x="205" y="105" width="150" height="20" rx="5" fill="#0A2540"/>
  <rect x="205" y="135" width="150" height="10" rx="5" fill="#E0E0E0"/>
  <rect x="205" y="155" width="150" height="10" rx="5" fill="#E0E0E0"/>
  <rect x="205" y="175" width="100" height="30" rx="5" fill="#D4AF37"/>
  
  <rect x="390" y="90" width="180" height="130" rx="10" fill="white" stroke="#E0E0E0" stroke-width="2"/>
  <rect x="405" y="105" width="150" height="20" rx="5" fill="#0A2540"/>
  <rect x="405" y="135" width="150" height="10" rx="5" fill="#E0E0E0"/>
  <rect x="405" y="155" width="150" height="10" rx="5" fill="#E0E0E0"/>
  <rect x="405" y="175" width="100" height="30" rx="5" fill="#D4AF37"/>
  
  <!-- Charts -->
  <rect x="190" y="240" width="380" height="140" rx="10" fill="white" stroke="#E0E0E0" stroke-width="2"/>
  <rect x="205" y="255" width="100" height="20" rx="5" fill="#0A2540"/>
  
  <!-- Bar Chart -->
  <rect x="215" y="295" width="30" height="60" rx="3" fill="#0A2540"/>
  <rect x="255" y="315" width="30" height="40" rx="3" fill="#1E3F66"/>
  <rect x="295" y="275" width="30" height="80" rx="3" fill="#D4AF37"/>
  <rect x="335" y="295" width="30" height="60" rx="3" fill="#1E3F66"/>
  <rect x="375" y="255" width="30" height="100" rx="3" fill="#0A2540"/>
  <rect x="415" y="325" width="30" height="30" rx="3" fill="#D4AF37"/>
  <rect x="455" y="285" width="30" height="70" rx="3" fill="#1E3F66"/>
  <rect x="495" y="305" width="30" height="50" rx="3" fill="#0A2540"/>
  
  <!-- Overlapping Effect for Perspective -->
  <rect x="0" y="0" width="600" height="400" rx="20" fill="url(#paint0_linear)" fill-opacity="0.2"/>
  
  <defs>
    <linearGradient id="paint0_linear" x1="300" y1="0" x2="300" y2="400" gradientUnits="userSpaceOnUse">
      <stop stop-color="white" stop-opacity="0.1"/>
      <stop offset="1" stop-color="black" stop-opacity="0.05"/>
    </linearGradient>
  </defs>
</svg> 