<svg width="600" height="400" viewBox="0 0 600 400" fill="none" xmlns="http://www.w3.org/2000/svg">
  <rect width="600" height="400" rx="20" fill="#F5F9FC" fill-opacity="0.5"/>
  
  <!-- Central Platform -->
  <circle cx="300" cy="200" r="70" fill="#0A2540"/>
  <text x="265" y="205" font-family="Inter, sans-serif" font-size="16" font-weight="bold" fill="white">Platform</text>
  
  <!-- Connecting Nodes - Startups -->
  <circle cx="150" cy="120" r="40" fill="#D4AF37"/>
  <text x="125" y="125" font-family="Inter, sans-serif" font-size="12" font-weight="bold" fill="white">Startups</text>
  
  <!-- Connecting Nodes - Investors -->
  <circle cx="450" cy="120" r="40" fill="#1E3F66"/>
  <text x="425" y="125" font-family="Inter, sans-serif" font-size="12" font-weight="bold" fill="white">Investors</text>
  
  <!-- Connecting Nodes - Enablers -->
  <circle cx="150" cy="280" r="40" fill="#F1CC76"/>
  <text x="127" y="285" font-family="Inter, sans-serif" font-size="12" font-weight="bold" fill="#0A2540">Enablers</text>
  
  <!-- Connecting Nodes - Growth -->
  <circle cx="450" cy="280" r="40" fill="#0A2540" fill-opacity="0.7"/>
  <text x="430" y="285" font-family="Inter, sans-serif" font-size="12" font-weight="bold" fill="white">Growth</text>
  
  <!-- Connecting Lines -->
  <line x1="188" y1="133" x2="242" y2="158" stroke="#D4AF37" stroke-width="2"/>
  <line x1="412" y1="133" x2="358" y2="158" stroke="#1E3F66" stroke-width="2"/>
  <line x1="188" y1="267" x2="242" y2="242" stroke="#F1CC76" stroke-width="2"/>
  <line x1="412" y1="267" x2="358" y2="242" stroke="#0A2540" stroke-width="2" stroke-opacity="0.7"/>
  
  <!-- Small Satellite Nodes -->
  <circle cx="100" cy="80" r="15" fill="#D4AF37" fill-opacity="0.7"/>
  <circle cx="200" cy="80" r="15" fill="#D4AF37" fill-opacity="0.7"/>
  <circle cx="100" cy="160" r="15" fill="#D4AF37" fill-opacity="0.7"/>
  
  <circle cx="400" cy="80" r="15" fill="#1E3F66" fill-opacity="0.7"/>
  <circle cx="500" cy="80" r="15" fill="#1E3F66" fill-opacity="0.7"/>
  <circle cx="500" cy="160" r="15" fill="#1E3F66" fill-opacity="0.7"/>
  
  <circle cx="100" cy="240" r="15" fill="#F1CC76" fill-opacity="0.7"/>
  <circle cx="100" cy="320" r="15" fill="#F1CC76" fill-opacity="0.7"/>
  <circle cx="200" cy="320" r="15" fill="#F1CC76" fill-opacity="0.7"/>
  
  <circle cx="400" cy="320" r="15" fill="#0A2540" fill-opacity="0.5"/>
  <circle cx="500" cy="320" r="15" fill="#0A2540" fill-opacity="0.5"/>
  <circle cx="500" cy="240" r="15" fill="#0A2540" fill-opacity="0.5"/>
  
  <!-- Connecting Lines for Satellite Nodes -->
  <line x1="112" y1="90" x2="138" y2="108" stroke="#D4AF37" stroke-width="1" stroke-opacity="0.7"/>
  <line x1="188" y1="90" x2="162" y2="108" stroke="#D4AF37" stroke-width="1" stroke-opacity="0.7"/>
  <line x1="112" y1="150" x2="138" y2="132" stroke="#D4AF37" stroke-width="1" stroke-opacity="0.7"/>
  
  <line x1="412" y1="90" x2="438" y2="108" stroke="#1E3F66" stroke-width="1" stroke-opacity="0.7"/>
  <line x1="488" y1="90" x2="462" y2="108" stroke="#1E3F66" stroke-width="1" stroke-opacity="0.7"/>
  <line x1="488" y1="150" x2="462" y2="132" stroke="#1E3F66" stroke-width="1" stroke-opacity="0.7"/>
  
  <line x1="112" y1="252" x2="138" y2="268" stroke="#F1CC76" stroke-width="1" stroke-opacity="0.7"/>
  <line x1="112" y1="308" x2="138" y2="292" stroke="#F1CC76" stroke-width="1" stroke-opacity="0.7"/>
  <line x1="188" y1="308" x2="162" y2="292" stroke="#F1CC76" stroke-width="1" stroke-opacity="0.7"/>
  
  <line x1="412" y1="308" x2="438" y2="292" stroke="#0A2540" stroke-width="1" stroke-opacity="0.5"/>
  <line x1="488" y1="308" x2="462" y2="292" stroke="#0A2540" stroke-width="1" stroke-opacity="0.5"/>
  <line x1="488" y1="252" x2="462" y2="268" stroke="#0A2540" stroke-width="1" stroke-opacity="0.5"/>
  
  <!-- Pulsating Central Circle -->
  <circle cx="300" cy="200" r="85" stroke="#D4AF37" stroke-width="2" stroke-dasharray="10 5" fill="none" opacity="0.4">
    <animate attributeName="r" from="75" to="90" dur="3s" repeatCount="indefinite" />
    <animate attributeName="opacity" from="0.6" to="0.2" dur="3s" repeatCount="indefinite" />
  </circle>
  
  <!-- Text Labels for Nodes -->
  <text x="85" y="70" font-family="Inter, sans-serif" font-size="8" fill="#0A2540">Tech</text>
  <text x="195" y="70" font-family="Inter, sans-serif" font-size="8" fill="#0A2540">SaaS</text>
  <text x="85" y="170" font-family="Inter, sans-serif" font-size="8" fill="#0A2540">Health</text>
  
  <text x="390" y="70" font-family="Inter, sans-serif" font-size="8" fill="#0A2540">Angels</text>
  <text x="490" y="70" font-family="Inter, sans-serif" font-size="8" fill="#0A2540">VC</text>
  <text x="490" y="170" font-family="Inter, sans-serif" font-size="8" fill="#0A2540">PE</text>
  
  <text x="75" y="245" font-family="Inter, sans-serif" font-size="8" fill="#0A2540">Mentor</text>
  <text x="75" y="325" font-family="Inter, sans-serif" font-size="8" fill="#0A2540">Support</text>
  <text x="180" y="325" font-family="Inter, sans-serif" font-size="8" fill="#0A2540">Advisor</text>
  
  <text x="380" y="325" font-family="Inter, sans-serif" font-size="8" fill="#0A2540">Funding</text>
  <text x="485" y="325" font-family="Inter, sans-serif" font-size="8" fill="#0A2540">Scale</text>
  <text x="485" y="245" font-family="Inter, sans-serif" font-size="8" fill="#0A2540">Market</text>
  
  <!-- Title -->
  <text x="205" y="40" font-family="Poppins, sans-serif" font-size="18" font-weight="bold" fill="#0A2540">Ecosystem Connectivity</text>
</svg> 