<svg width="600" height="400" viewBox="0 0 600 400" fill="none" xmlns="http://www.w3.org/2000/svg">
  <rect width="600" height="400" rx="20" fill="#F5F9FC" fill-opacity="0.5"/>
  
  <!-- Growth Chart Background -->
  <rect x="50" y="50" width="500" height="300" rx="10" fill="white" stroke="#E0E0E0" stroke-width="2"/>
  
  <!-- Chart Grid Lines -->
  <line x1="100" y1="300" x2="500" y2="300" stroke="#E0E0E0" stroke-width="1"/>
  <line x1="100" y1="250" x2="500" y2="250" stroke="#E0E0E0" stroke-width="1"/>
  <line x1="100" y1="200" x2="500" y2="200" stroke="#E0E0E0" stroke-width="1"/>
  <line x1="100" y1="150" x2="500" y2="150" stroke="#E0E0E0" stroke-width="1"/>
  <line x1="100" y1="100" x2="500" y2="100" stroke="#E0E0E0" stroke-width="1"/>
  
  <line x1="100" y1="100" x2="100" y2="300" stroke="#E0E0E0" stroke-width="1"/>
  <line x1="180" y1="100" x2="180" y2="300" stroke="#E0E0E0" stroke-width="1"/>
  <line x1="260" y1="100" x2="260" y2="300" stroke="#E0E0E0" stroke-width="1"/>
  <line x1="340" y1="100" x2="340" y2="300" stroke="#E0E0E0" stroke-width="1"/>
  <line x1="420" y1="100" x2="420" y2="300" stroke="#E0E0E0" stroke-width="1"/>
  <line x1="500" y1="100" x2="500" y2="300" stroke="#E0E0E0" stroke-width="1"/>
  
  <!-- Chart Axes -->
  <line x1="100" y1="300" x2="500" y2="300" stroke="#0A2540" stroke-width="2"/>
  <line x1="100" y1="100" x2="100" y2="300" stroke="#0A2540" stroke-width="2"/>
  
  <!-- Chart Labels -->
  <text x="90" y="320" font-family="Inter, sans-serif" font-size="12" fill="#0A2540">0</text>
  <text x="170" y="320" font-family="Inter, sans-serif" font-size="12" fill="#0A2540">Q1</text>
  <text x="250" y="320" font-family="Inter, sans-serif" font-size="12" fill="#0A2540">Q2</text>
  <text x="330" y="320" font-family="Inter, sans-serif" font-size="12" fill="#0A2540">Q3</text>
  <text x="410" y="320" font-family="Inter, sans-serif" font-size="12" fill="#0A2540">Q4</text>
  <text x="490" y="320" font-family="Inter, sans-serif" font-size="12" fill="#0A2540">Q5</text>
  
  <text x="80" y="305" font-family="Inter, sans-serif" font-size="12" fill="#0A2540">0</text>
  <text x="80" y="255" font-family="Inter, sans-serif" font-size="12" fill="#0A2540">25</text>
  <text x="80" y="205" font-family="Inter, sans-serif" font-size="12" fill="#0A2540">50</text>
  <text x="80" y="155" font-family="Inter, sans-serif" font-size="12" fill="#0A2540">75</text>
  <text x="75" y="105" font-family="Inter, sans-serif" font-size="12" fill="#0A2540">100</text>
  
  <!-- Growth Line -->
  <path d="M100,280 L180,250 L260,200 L340,150 L420,120 L500,80" stroke="#D4AF37" stroke-width="3" fill="none"/>
  
  <!-- Growth Line Points -->
  <circle cx="100" cy="280" r="6" fill="#D4AF37"/>
  <circle cx="180" cy="250" r="6" fill="#D4AF37"/>
  <circle cx="260" cy="200" r="6" fill="#D4AF37"/>
  <circle cx="340" cy="150" r="6" fill="#D4AF37"/>
  <circle cx="420" cy="120" r="6" fill="#D4AF37"/>
  <circle cx="500" cy="80" r="6" fill="#D4AF37"/>
  
  <!-- Chart Title -->
  <text x="120" y="80" font-family="Poppins, sans-serif" font-size="18" font-weight="bold" fill="#0A2540">Startup Growth Trajectory</text>
  
  <!-- Rocket Icon -->
  <g transform="translate(450, 70) scale(0.8)">
    <path d="M25,0 C25,0 0,15 0,40 C0,65 25,100 25,100 C25,100 50,65 50,40 C50,15 25,0 25,0 Z" fill="#0A2540"/>
    <circle cx="25" cy="35" r="10" fill="#D4AF37"/>
    <path d="M25,100 L15,85 L35,85 L25,100 Z" fill="#0A2540"/>
  </g>
  
  <!-- Growth Area Gradient -->
  <path d="M100,280 L180,250 L260,200 L340,150 L420,120 L500,80 L500,300 L100,300 Z" fill="url(#paint0_linear)" fill-opacity="0.3"/>
  
  <defs>
    <linearGradient id="paint0_linear" x1="300" y1="80" x2="300" y2="300" gradientUnits="userSpaceOnUse">
      <stop stop-color="#D4AF37" stop-opacity="0.7"/>
      <stop offset="1" stop-color="#D4AF37" stop-opacity="0"/>
    </linearGradient>
  </defs>
</svg> 